<svg id="svg-source" height="0" version="1.1" 
  xmlns="http://www.w3.org/2000/svg" style="position:absolute; margin-left: -100%" 
  xmlns:xlink="http://www.w3.org/1999/xlink">
  <g id="snowflake" data-iconmelon="Merry icons:0a890f7456bdb84e69b176062c2b087a">
    <path fill-rule="evenodd" clip-rule="evenodd" d="M30.384,11.057c-0.336-0.116-0.695-0.171-1.044-0.249
	c-0.317-0.071-0.638-0.132-0.954-0.206c-0.045-0.01-0.08-0.067-0.113-0.108c-0.004-0.004,0.035-0.055,0.062-0.068
	c0.322-0.157,0.651-0.302,0.967-0.47c0.205-0.109,0.363-0.274,0.42-0.516c0.141-0.596-0.407-1.131-0.996-0.933
	c-0.461,0.156-0.898,0.384-1.344,0.583c-0.207,0.093-0.408,0.2-0.617,0.286c-0.031,0.012-0.131-0.052-0.137-0.089
	c-0.016-0.126-0.02-0.259,0.002-0.383c0.163-0.897,0.338-1.792,0.501-2.688c0.066-0.364-0.081-0.655-0.392-0.816
	c-0.279-0.144-0.641-0.054-0.846,0.282c-0.186,0.302-0.33,0.637-0.438,0.975c-0.414,1.305-0.815,2.613-1.199,3.927
	c-0.069,0.238-0.176,0.405-0.375,0.538c-1.251,0.83-2.496,1.665-3.746,2.497c-0.244,0.163-0.322,0.167-0.504-0.033
	c-0.562-0.618-1.227-1.062-2.035-1.298c-0.383-0.111-0.41-0.181-0.42-0.553c-0.004-0.164-0.002-0.327,0-0.49
	c0.012-1.208,0.026-2.416,0.031-3.624c0.002-0.312,0.059-0.567,0.365-0.738c0.162-0.09,0.283-0.26,0.41-0.403
	c0.217-0.244,0.409-0.512,0.639-0.741c0.668-0.67,1.35-1.327,2.026-1.989c0.14-0.137,0.288-0.267,0.413-0.416
	c0.266-0.313,0.27-0.633,0.032-0.988c-0.212-0.314-0.593-0.437-0.946-0.281c-0.178,0.078-0.35,0.18-0.504,0.298
	c-0.361,0.279-0.713,0.571-1.064,0.862c-0.353,0.291-0.7,0.586-1.053,0.876c-0.098,0.08-0.273-0.016-0.278-0.15
	c-0.007-0.195-0.009-0.392-0.003-0.587c0.029-0.847,0.08-1.694,0.088-2.542c0.008-0.753-0.199-0.901-0.965-0.785
	c-0.219,0.033-0.365,0.15-0.433,0.346c-0.063,0.182-0.11,0.376-0.122,0.568c-0.03,0.521-0.033,1.043-0.057,1.565
	c-0.014,0.321,0.096,0.65-0.059,0.962c-0.416,0.015-0.57-0.374-0.852-0.563c-0.352-0.236-0.662-0.529-1.004-0.78
	c-0.208-0.153-0.438-0.277-0.664-0.404c-0.156-0.087-0.316-0.046-0.471,0.021c-0.514,0.225-0.678,0.763-0.363,1.203
	c0.057,0.079,0.125,0.151,0.193,0.221c0.619,0.625,1.238,1.249,1.859,1.873c0.162,0.162,0.316,0.333,0.492,0.478
	c0.484,0.399,0.576,0.902,0.482,1.497c-0.086,0.546-0.119,1.101-0.154,1.653c-0.066,1.041-0.115,2.083-0.176,3.125
	c-0.01,0.181-0.104,0.316-0.295,0.326c-0.739,0.037-1.39,0.319-2.012,0.698c-0.277,0.169-0.349,0.156-0.598-0.076
	c-0.906-0.849-1.883-1.612-2.902-2.321C8.94,10.223,8.649,10.013,8.347,9.82C8.079,9.648,7.938,9.429,7.923,9.101
	c-0.047-1.075-0.111-2.149-0.17-3.224C7.741,5.681,7.761,5.479,7.718,5.292C7.641,4.959,7.46,4.689,7.104,4.594
	c-0.281-0.077-0.701,0.158-0.875,0.5C6.144,5.267,6.082,5.456,6.03,5.644C5.997,5.768,6.001,5.902,5.988,6.032
	C5.938,6.551,5.888,7.07,5.835,7.589C5.817,7.765,5.722,7.817,5.583,7.724C5.394,7.595,5.206,7.465,5.021,7.331
	c-0.37-0.268-0.728-0.553-1.11-0.803C3.558,6.296,3.194,6.072,2.739,6.089c-0.402,0.015-0.684,0.29-0.646,0.693
	C2.11,6.97,2.156,7.179,2.259,7.331C2.439,7.598,2.651,7.853,2.89,8.068C3.421,8.55,3.978,9.004,4.522,9.471
	C4.63,9.563,4.604,9.75,4.473,9.789c-0.843,0.248-1.601,0.744-2.485,0.873c-0.094,0.014-0.184,0.068-0.271,0.109
	c-0.341,0.16-0.471,0.405-0.424,0.795c0.034,0.283,0.261,0.545,0.572,0.585c0.289,0.037,0.596,0.063,0.876,0.008
	c0.894-0.174,1.794-0.34,2.646-0.678c0.212-0.084,0.425-0.167,0.641-0.242c0.396-0.137,0.743-0.097,1.097,0.177
	c1.088,0.841,2.281,1.514,3.515,2.119c0.059,0.029,0.118,0.054,0.176,0.085c0.308,0.172,0.38,0.268,0.288,0.636
	c-0.195,0.771-0.178,1.553-0.182,2.335c0,0.065-0.002,0.13,0.001,0.196c0.013,0.248-0.077,0.45-0.284,0.587
	c-0.734,0.486-1.473,0.966-2.205,1.454C8.177,19,7.901,19.046,7.597,19.043c-0.553-0.005-1.105,0.1-1.652,0.121
	c-0.568,0.02-1.145-0.199-1.721-0.301c-0.225-0.04-0.465-0.009-0.68-0.074c-0.527-0.159-1.035,0-1.55,0.051
	c-0.339,0.033-0.604,0.228-0.849,0.454c-0.209,0.194-0.289,0.436-0.223,0.71c0.075,0.313,0.295,0.509,0.602,0.574
	c0.221,0.047,0.459,0.073,0.682,0.046c0.761-0.095,1.489,0.111,2.23,0.207c0.043,0.006,0.111,0.072,0.111,0.107
	c-0.002,0.058-0.039,0.131-0.084,0.167c-0.129,0.099-0.268,0.185-0.406,0.271c-0.557,0.34-1.113,0.681-1.674,1.016
	c-0.457,0.274-0.697,0.659-0.689,1.206c0.006,0.488,0.223,0.747,0.701,0.723c0.221-0.012,0.455-0.067,0.65-0.168
	c0.287-0.149,0.557-0.34,0.809-0.544c0.414-0.333,0.889-0.545,1.367-0.753c0.123-0.053,0.244,0.043,0.242,0.199
	c-0.004,0.326-0.018,0.652-0.025,0.979c-0.004,0.229-0.02,0.458-0.008,0.685c0.018,0.375,0.186,0.688,0.453,0.948
	c0.229,0.224,0.559,0.234,0.799,0.031c0.256-0.217,0.448-0.485,0.506-0.815c0.073-0.417,0.129-0.839,0.152-1.261
	c0.027-0.488,0.023-0.979,0.008-1.469c-0.01-0.334,0.119-0.533,0.414-0.7c1.276-0.723,2.539-1.47,3.807-2.21
	c0.266-0.154,0.283-0.166,0.48,0.07c0.631,0.76,1.447,1.203,2.389,1.442c0.063,0.016,0.127,0.028,0.191,0.044
	c0.143,0.038,0.227,0.138,0.221,0.279c-0.016,0.358-0.04,0.716-0.072,1.074c-0.043,0.486-0.105,0.971-0.146,1.458
	c-0.057,0.683-0.105,1.365-0.15,2.048c-0.014,0.206-0.082,0.378-0.232,0.521c-0.166,0.157-0.329,0.317-0.49,0.479
	c-0.576,0.579-1.146,1.163-1.725,1.739c-0.242,0.24-0.373,0.531-0.441,0.855c-0.104,0.48,0.231,0.897,0.729,0.957
	c0.512,0.062,0.864-0.186,1.202-0.524c0.226-0.226,0.421-0.5,0.751-0.601c0.309,0.292,0.129,0.667,0.146,0.999
	c0.023,0.461,0.078,0.913,0.239,1.341c0.118,0.319,0.35,0.56,0.72,0.577c0.379,0.017,0.59-0.235,0.756-0.53
	c0.046-0.083,0.068-0.184,0.083-0.279c0.06-0.385,0.136-0.77,0.161-1.157c0.037-0.586,0.035-1.174,0.059-1.761
	c0.002-0.031,0.094-0.092,0.122-0.082c0.089,0.035,0.171,0.09,0.249,0.147c0.527,0.385,1.043,0.785,1.58,1.154
	c0.295,0.202,0.619,0.343,1.001,0.35c0.665,0.011,1.12-0.818,0.748-1.337c-0.169-0.237-0.339-0.5-0.569-0.663
	c-0.875-0.622-1.65-1.39-2.631-1.86c-0.269-0.129-0.377-0.35-0.378-0.631c-0.003-0.522-0.001-1.044-0.001-1.645
	c0.064-0.835,0.135-1.746,0.205-2.656c0.016-0.181,0.117-0.298,0.277-0.369c0.326-0.145,0.67-0.26,0.979-0.438
	c0.688-0.394,1.258-0.925,1.717-1.576c0.197-0.281,0.314-0.307,0.557-0.112c0.541,0.435,1.15,0.736,1.783,1.005
	c0.602,0.254,1.188,0.54,1.791,0.788c0.402,0.167,0.621,0.384,0.593,0.874c-0.069,1.161,0.259,2.26,0.67,3.33
	c0.126,0.329,0.333,0.635,0.546,0.919c0.223,0.296,0.562,0.308,0.895,0.213c0.322-0.092,0.471-0.364,0.506-0.66
	c0.021-0.177-0.051-0.39-0.145-0.551c-0.33-0.572-0.527-1.19-0.682-1.826c-0.053-0.219-0.062-0.45-0.083-0.676
	c-0.011-0.123,0.161-0.226,0.276-0.167c0.233,0.115,0.455,0.26,0.697,0.352c0.487,0.185,0.98,0.357,1.479,0.503
	c0.098,0.028,0.252-0.06,0.348-0.135c0.117-0.089,0.098-0.23,0.025-0.351c-0.416-0.706-0.861-1.386-1.551-1.868
	c-0.092-0.063-0.264-0.131-0.158-0.296c0.048-0.073,0.146-0.133,0.232-0.159c0.312-0.093,0.631-0.165,0.943-0.253
	c0.533-0.15,1.07-0.29,1.594-0.468c0.339-0.116,0.52-0.449,0.484-0.771c-0.039-0.352-0.352-0.658-0.734-0.663
	c-0.289-0.004-0.586,0.026-0.868,0.095c-0.569,0.138-1.132,0.309-1.694,0.473c-0.533,0.155-1.069,0.305-1.533,0.625
	c-0.189,0.13-0.355,0.081-0.547-0.007c-1.064-0.494-2.133-0.981-3.205-1.462c-0.444-0.199-0.898-0.379-1.35-0.567
	c-0.271-0.476-0.016-1.034-0.232-1.52c-0.025-0.057-0.041-0.138-0.02-0.191c0.046-0.112,0.096-0.278,0.184-0.311
	c1.27-0.466,2.348-1.271,3.502-1.944c0.479-0.28,0.967-0.546,1.428-0.853c0.338-0.223,0.637-0.273,0.986-0.037
	c0.383,0.259,0.828,0.377,1.277,0.473c0.764,0.163,1.527,0.322,2.295,0.469c0.156,0.029,0.33,0.02,0.486-0.013
	c0.236-0.049,0.41-0.203,0.5-0.428C31.253,11.899,30.987,11.267,30.384,11.057z M18.414,16.614
	c-0.397,0.752-0.999,1.292-1.749,1.628c-1.219,0.545-2.713,0.157-3.463-1.115c-0.089-0.153-0.127-0.384-0.088-0.556
	c0.129-0.567,0.296-1.126,0.463-1.685c0.182-0.602,0.628-0.89,1.226-0.947c0.321-0.031,0.647-0.006,0.972-0.006V13.93
	c0.324,0,0.65-0.024,0.973,0.005c0.568,0.051,1.057,0.284,1.445,0.716C18.718,15.235,18.782,15.919,18.414,16.614z"></path>
  </g>
</svg>